M48
INCH
T1C0.0118
T2C0.0236
T3C0.0236
T4C0.0394
%
G90
G05
T1
X6.3268Y-0.815
X6.3504Y-0.9106
X6.3685Y-0.9406
X6.3913Y-1.085
X6.4476Y-2.052
X6.4823Y-2.3197
X6.539Y-1.0618
X6.5465Y-2.3921
X6.5776Y-1.139
X6.6181Y-1.7827
X6.6185Y-2.2453
X6.6228Y-1.1665
X6.6378Y-1.8252
X6.6579Y-0.9295
X6.6799Y-2.3988
X6.6946Y-0.984
X6.7146Y-1.3335
X6.731Y-0.9927
X6.7315Y-2.4
X6.7354Y-2.1969
X6.7358Y-1.2402
X6.7441Y-1.9118
X6.7504Y-2.1547
X6.7516Y-2.1051
X6.752Y-2.0598
X6.7568Y-0.9401
X6.789Y-1.3327
X6.7899Y-0.945
X6.7913Y-2.0055
X6.7988Y-2.1047
X6.8154Y-1.8693
X6.8179Y-2.6344
X6.8307Y-0.9685
X6.8366Y-2.4858
X6.8469Y-2.2008
X6.8524Y-2.4008
X6.8823Y-1.6154
X6.8933Y-2.2508
X6.9028Y-1.335
X6.9335Y-1.1346
X6.9583Y-0.9677
X7.0728Y-0.9432
X7.0913Y-0.8154
X7.1839Y-0.9673
T2
X6.3386Y-1.0339
X6.5039Y-0.8937
X6.5217Y-2.3346
X6.5268Y-2.1606
X6.6256Y-1.8713
X6.6776Y-1.4602
X6.6945Y-0.8406
X6.939Y-1.4374
X7.0354Y-0.9654
X7.0866Y-1.1142
X7.122Y-1.063
T4
X6.3701Y-1.624
X6.3701Y-1.724
X6.3701Y-1.824
X6.3701Y-1.924
X6.3701Y-2.024
X6.3701Y-2.124
X6.3701Y-2.224
X6.3701Y-2.324
X6.3701Y-2.424
X6.3701Y-2.524
X6.3701Y-2.624
X6.3701Y-2.724
X6.5958Y-1.2776
X6.5958Y-1.376
X7.1358Y-1.2244
X7.1358Y-1.3244
X7.1358Y-1.4244
X7.1358Y-1.5244
X7.1358Y-1.6244
X7.1358Y-1.7244
X7.1358Y-1.8244
X7.1358Y-1.9244
X7.1358Y-2.0244
X7.1358Y-2.1244
X7.1358Y-2.2244
X7.1358Y-2.3244
X7.1358Y-2.4244
X7.1358Y-2.5244
X7.1358Y-2.6244
X7.1358Y-2.7244
T3
G00X6.5819Y-0.9154
M15
G01X6.5819Y-0.8917
M16
G05
G00X6.5819Y-1.0898
M15
G01X6.5819Y-1.0465
M16
G05
G00X6.922Y-0.9154
M15
G01X6.922Y-0.8917
M16
G05
G00X6.922Y-1.0898
M15
G01X6.922Y-1.0465
M16
G05
T0
M30
