%TF.GenerationSoftware,KiCad,Pcbnew,(6.0.9)*%
%TF.CreationDate,2023-01-04T16:56:23-05:00*%
%TF.ProjectId,RP2040_DevBoard_LiPo,52503230-3430-45f4-9465-76426f617264,rev?*%
%TF.SameCoordinates,Original*%
%TF.FileFunction,Soldermask,Top*%
%TF.FilePolarity,Negative*%
%FSLAX46Y46*%
G04 Gerber Fmt 4.6, Leading zero omitted, Abs format (unit mm)*
G04 Created by KiCad (PCBNEW (6.0.9)) date 2023-01-04 16:56:23*
%MOMM*%
%LPD*%
G01*
G04 APERTURE LIST*
G04 Aperture macros list*
%AMRoundRect*
0 Rectangle with rounded corners*
0 $1 Rounding radius*
0 $2 $3 $4 $5 $6 $7 $8 $9 X,Y pos of 4 corners*
0 Add a 4 corners polygon primitive as box body*
4,1,4,$2,$3,$4,$5,$6,$7,$8,$9,$2,$3,0*
0 Add four circle primitives for the rounded corners*
1,1,$1+$1,$2,$3*
1,1,$1+$1,$4,$5*
1,1,$1+$1,$6,$7*
1,1,$1+$1,$8,$9*
0 Add four rect primitives between the rounded corners*
20,1,$1+$1,$2,$3,$4,$5,0*
20,1,$1+$1,$4,$5,$6,$7,0*
20,1,$1+$1,$6,$7,$8,$9,0*
20,1,$1+$1,$8,$9,$2,$3,0*%
G04 Aperture macros list end*
%ADD10RoundRect,0.250000X0.375000X0.625000X-0.375000X0.625000X-0.375000X-0.625000X0.375000X-0.625000X0*%
%ADD11RoundRect,0.150000X0.512500X0.150000X-0.512500X0.150000X-0.512500X-0.150000X0.512500X-0.150000X0*%
%ADD12RoundRect,0.135000X0.185000X-0.135000X0.185000X0.135000X-0.185000X0.135000X-0.185000X-0.135000X0*%
%ADD13RoundRect,0.250000X-0.625000X0.375000X-0.625000X-0.375000X0.625000X-0.375000X0.625000X0.375000X0*%
%ADD14C,0.650000*%
%ADD15R,0.600000X1.450000*%
%ADD16R,0.300000X1.450000*%
%ADD17O,1.000000X2.100000*%
%ADD18O,1.000000X1.600000*%
%ADD19RoundRect,0.140000X0.170000X-0.140000X0.170000X0.140000X-0.170000X0.140000X-0.170000X-0.140000X0*%
%ADD20RoundRect,0.135000X-0.135000X-0.185000X0.135000X-0.185000X0.135000X0.185000X-0.135000X0.185000X0*%
%ADD21R,1.700000X1.700000*%
%ADD22O,1.700000X1.700000*%
%ADD23RoundRect,0.150000X-0.150000X0.587500X-0.150000X-0.587500X0.150000X-0.587500X0.150000X0.587500X0*%
%ADD24RoundRect,0.140000X-0.170000X0.140000X-0.170000X-0.140000X0.170000X-0.140000X0.170000X0.140000X0*%
%ADD25RoundRect,0.140000X-0.140000X-0.170000X0.140000X-0.170000X0.140000X0.170000X-0.140000X0.170000X0*%
%ADD26RoundRect,0.135000X-0.185000X0.135000X-0.185000X-0.135000X0.185000X-0.135000X0.185000X0.135000X0*%
%ADD27RoundRect,0.150000X-0.150000X0.512500X-0.150000X-0.512500X0.150000X-0.512500X0.150000X0.512500X0*%
%ADD28RoundRect,0.140000X0.140000X0.170000X-0.140000X0.170000X-0.140000X-0.170000X0.140000X-0.170000X0*%
%ADD29RoundRect,0.135000X0.135000X0.185000X-0.135000X0.185000X-0.135000X-0.185000X0.135000X-0.185000X0*%
%ADD30RoundRect,0.200000X-0.800000X0.200000X-0.800000X-0.200000X0.800000X-0.200000X0.800000X0.200000X0*%
%ADD31RoundRect,0.147500X0.147500X0.172500X-0.147500X0.172500X-0.147500X-0.172500X0.147500X-0.172500X0*%
%ADD32RoundRect,0.150000X0.650000X0.150000X-0.650000X0.150000X-0.650000X-0.150000X0.650000X-0.150000X0*%
%ADD33R,1.200000X1.400000*%
%ADD34RoundRect,0.050000X0.387500X0.050000X-0.387500X0.050000X-0.387500X-0.050000X0.387500X-0.050000X0*%
%ADD35RoundRect,0.050000X0.050000X0.387500X-0.050000X0.387500X-0.050000X-0.387500X0.050000X-0.387500X0*%
%ADD36R,3.200000X3.200000*%
%ADD37RoundRect,0.250000X0.750000X-0.600000X0.750000X0.600000X-0.750000X0.600000X-0.750000X-0.600000X0*%
%ADD38O,2.000000X1.700000*%
%ADD39RoundRect,0.218750X-0.256250X0.218750X-0.256250X-0.218750X0.256250X-0.218750X0.256250X0.218750X0*%
%ADD40R,0.450000X0.600000*%
G04 APERTURE END LIST*
D10*
%TO.C,D3*%
X181500000Y-21600000D03*
X178700000Y-21600000D03*
%TD*%
D11*
%TO.C,U3*%
X164937500Y-28450000D03*
X164937500Y-27500000D03*
X164937500Y-26550000D03*
X162662500Y-26550000D03*
X162662500Y-28450000D03*
%TD*%
D12*
%TO.C,R10*%
X169670000Y-60020000D03*
X169670000Y-59000000D03*
%TD*%
D13*
%TO.C,D1*%
X173150000Y-37280000D03*
X173150000Y-40080000D03*
%TD*%
D14*
%TO.C,J1*%
X168610000Y-26600000D03*
X174390000Y-26600000D03*
D15*
X174750000Y-28045000D03*
X173950000Y-28045000D03*
D16*
X172750000Y-28045000D03*
X171750000Y-28045000D03*
X171250000Y-28045000D03*
X170250000Y-28045000D03*
D15*
X169050000Y-28045000D03*
X168250000Y-28045000D03*
X168250000Y-28045000D03*
X169050000Y-28045000D03*
D16*
X169750000Y-28045000D03*
X170750000Y-28045000D03*
X172250000Y-28045000D03*
X173250000Y-28045000D03*
D15*
X173950000Y-28045000D03*
X174750000Y-28045000D03*
D17*
X167180000Y-27130000D03*
D18*
X175820000Y-22950000D03*
X167180000Y-22950000D03*
D17*
X175820000Y-27130000D03*
%TD*%
D19*
%TO.C,C6*%
X165200000Y-25080000D03*
X165200000Y-24120000D03*
%TD*%
D20*
%TO.C,R1*%
X161790000Y-22000000D03*
X162810000Y-22000000D03*
%TD*%
D19*
%TO.C,C8*%
X172630000Y-43030000D03*
X172630000Y-42070000D03*
%TD*%
%TO.C,C18*%
X167290000Y-59980000D03*
X167290000Y-59020000D03*
%TD*%
D21*
%TO.C,J2*%
X181250000Y-31100000D03*
D22*
X181250000Y-33640000D03*
X181250000Y-36180000D03*
X181250000Y-38720000D03*
X181250000Y-41260000D03*
X181250000Y-43800000D03*
X181250000Y-46340000D03*
X181250000Y-48880000D03*
X181250000Y-51420000D03*
X181250000Y-53960000D03*
X181250000Y-56500000D03*
X181250000Y-59040000D03*
X181250000Y-61580000D03*
X181250000Y-64120000D03*
X181250000Y-66660000D03*
X181250000Y-69200000D03*
%TD*%
D12*
%TO.C,R5*%
X174100000Y-30910000D03*
X174100000Y-29890000D03*
%TD*%
D19*
%TO.C,C5*%
X177700000Y-35480000D03*
X177700000Y-34520000D03*
%TD*%
%TO.C,C4*%
X177700000Y-33380000D03*
X177700000Y-32420000D03*
%TD*%
D23*
%TO.C,Q1*%
X179750000Y-25562500D03*
X177850000Y-25562500D03*
X178800000Y-27437500D03*
%TD*%
D19*
%TO.C,C19*%
X172160000Y-60920000D03*
X172160000Y-59960000D03*
%TD*%
D20*
%TO.C,R3*%
X175420000Y-40180000D03*
X176440000Y-40180000D03*
%TD*%
D19*
%TO.C,C13*%
X171270000Y-47620000D03*
X171270000Y-46660000D03*
%TD*%
%TO.C,C11*%
X173390000Y-60950000D03*
X173390000Y-59990000D03*
%TD*%
D24*
%TO.C,C1*%
X160800000Y-24020000D03*
X160800000Y-24980000D03*
%TD*%
D12*
%TO.C,R6*%
X161000000Y-28610000D03*
X161000000Y-27590000D03*
%TD*%
D25*
%TO.C,C15*%
X164640000Y-51690000D03*
X165600000Y-51690000D03*
%TD*%
D20*
%TO.C,R7*%
X177790000Y-23500000D03*
X178810000Y-23500000D03*
%TD*%
D19*
%TO.C,C12*%
X168490000Y-59980000D03*
X168490000Y-59020000D03*
%TD*%
D26*
%TO.C,R8*%
X172650000Y-44230000D03*
X172650000Y-45250000D03*
%TD*%
D24*
%TO.C,C9*%
X165910000Y-66080000D03*
X165910000Y-67040000D03*
%TD*%
D27*
%TO.C,U2*%
X176250000Y-32562500D03*
X175300000Y-32562500D03*
X174350000Y-32562500D03*
X174350000Y-34837500D03*
X176250000Y-34837500D03*
%TD*%
D28*
%TO.C,C16*%
X177340000Y-52470000D03*
X176380000Y-52470000D03*
%TD*%
D27*
%TO.C,U1*%
X172450000Y-30362500D03*
X171500000Y-30362500D03*
X170550000Y-30362500D03*
X170550000Y-32637500D03*
X171500000Y-32637500D03*
X172450000Y-32637500D03*
%TD*%
D19*
%TO.C,C14*%
X176280000Y-57700000D03*
X176280000Y-56740000D03*
%TD*%
D29*
%TO.C,R4*%
X181810000Y-23700000D03*
X180790000Y-23700000D03*
%TD*%
D30*
%TO.C,SW1*%
X169350000Y-39330000D03*
X169350000Y-43530000D03*
%TD*%
D20*
%TO.C,R2*%
X161790000Y-20900000D03*
X162810000Y-20900000D03*
%TD*%
D26*
%TO.C,R12*%
X165710000Y-45020000D03*
X165710000Y-46040000D03*
%TD*%
D30*
%TO.C,SW2*%
X165680000Y-39270000D03*
X165680000Y-43470000D03*
%TD*%
D19*
%TO.C,C3*%
X176700000Y-30880000D03*
X176700000Y-29920000D03*
%TD*%
D25*
%TO.C,C17*%
X165590000Y-57450000D03*
X166550000Y-57450000D03*
%TD*%
D31*
%TO.C,L1*%
X165085000Y-21000000D03*
X164115000Y-21000000D03*
%TD*%
D32*
%TO.C,U5*%
X175080000Y-66915000D03*
X175080000Y-65645000D03*
X175080000Y-64375000D03*
X175080000Y-63105000D03*
X167880000Y-63105000D03*
X167880000Y-64375000D03*
X167880000Y-65645000D03*
X167880000Y-66915000D03*
%TD*%
D33*
%TO.C,Y1*%
X175980000Y-44730000D03*
X175980000Y-42530000D03*
X174280000Y-42530000D03*
X174280000Y-44730000D03*
%TD*%
D28*
%TO.C,C7*%
X173630000Y-46440000D03*
X172670000Y-46440000D03*
%TD*%
D19*
%TO.C,C2*%
X175400000Y-30880000D03*
X175400000Y-29920000D03*
%TD*%
%TO.C,C10*%
X169900000Y-47920000D03*
X169900000Y-46960000D03*
%TD*%
D21*
%TO.C,J6*%
X161800000Y-41250000D03*
D22*
X161800000Y-43790000D03*
X161800000Y-46330000D03*
X161800000Y-48870000D03*
X161800000Y-51410000D03*
X161800000Y-53950000D03*
X161800000Y-56490000D03*
X161800000Y-59030000D03*
X161800000Y-61570000D03*
X161800000Y-64110000D03*
X161800000Y-66650000D03*
X161800000Y-69190000D03*
%TD*%
D25*
%TO.C,C20*%
X165580000Y-56080000D03*
X166540000Y-56080000D03*
%TD*%
D34*
%TO.C,U4*%
X174937500Y-56100000D03*
X174937500Y-55700000D03*
X174937500Y-55300000D03*
X174937500Y-54900000D03*
X174937500Y-54500000D03*
X174937500Y-54100000D03*
X174937500Y-53700000D03*
X174937500Y-53300000D03*
X174937500Y-52900000D03*
X174937500Y-52500000D03*
X174937500Y-52100000D03*
X174937500Y-51700000D03*
X174937500Y-51300000D03*
X174937500Y-50900000D03*
D35*
X174100000Y-50062500D03*
X173700000Y-50062500D03*
X173300000Y-50062500D03*
X172900000Y-50062500D03*
X172500000Y-50062500D03*
X172100000Y-50062500D03*
X171700000Y-50062500D03*
X171300000Y-50062500D03*
X170900000Y-50062500D03*
X170500000Y-50062500D03*
X170100000Y-50062500D03*
X169700000Y-50062500D03*
X169300000Y-50062500D03*
X168900000Y-50062500D03*
D34*
X168062500Y-50900000D03*
X168062500Y-51300000D03*
X168062500Y-51700000D03*
X168062500Y-52100000D03*
X168062500Y-52500000D03*
X168062500Y-52900000D03*
X168062500Y-53300000D03*
X168062500Y-53700000D03*
X168062500Y-54100000D03*
X168062500Y-54500000D03*
X168062500Y-54900000D03*
X168062500Y-55300000D03*
X168062500Y-55700000D03*
X168062500Y-56100000D03*
D35*
X168900000Y-56937500D03*
X169300000Y-56937500D03*
X169700000Y-56937500D03*
X170100000Y-56937500D03*
X170500000Y-56937500D03*
X170900000Y-56937500D03*
X171300000Y-56937500D03*
X171700000Y-56937500D03*
X172100000Y-56937500D03*
X172500000Y-56937500D03*
X172900000Y-56937500D03*
X173300000Y-56937500D03*
X173700000Y-56937500D03*
X174100000Y-56937500D03*
D36*
X171500000Y-53500000D03*
%TD*%
D12*
%TO.C,R9*%
X170950000Y-60020000D03*
X170950000Y-59000000D03*
%TD*%
D37*
%TO.C,J3*%
X167532500Y-34950000D03*
D38*
X167532500Y-32450000D03*
%TD*%
D39*
%TO.C,F1*%
X162700000Y-23312500D03*
X162700000Y-24887500D03*
%TD*%
D26*
%TO.C,R11*%
X169560000Y-44860000D03*
X169560000Y-45880000D03*
%TD*%
D40*
%TO.C,D2*%
X181700000Y-27550000D03*
X181700000Y-25450000D03*
%TD*%
M02*
