%TF.GenerationSoftware,KiCad,Pcbnew,(6.0.9)*%
%TF.CreationDate,2023-01-04T16:56:23-05:00*%
%TF.ProjectId,RP2040_DevBoard_LiPo,52503230-3430-45f4-9465-76426f617264,rev?*%
%TF.SameCoordinates,Original*%
%TF.FileFunction,Legend,Top*%
%TF.FilePolarity,Positive*%
%FSLAX46Y46*%
G04 Gerber Fmt 4.6, Leading zero omitted, Abs format (unit mm)*
G04 Created by KiCad (PCBNEW (6.0.9)) date 2023-01-04 16:56:23*
%MOMM*%
%LPD*%
G01*
G04 APERTURE LIST*
%ADD10C,0.120000*%
G04 APERTURE END LIST*
D10*
%TO.C,D3*%
X178500000Y-22735000D02*
X182385000Y-22735000D01*
X182385000Y-20465000D02*
X178500000Y-20465000D01*
X182385000Y-22735000D02*
X182385000Y-20465000D01*
%TO.C,U3*%
X163800000Y-25940000D02*
X163000000Y-25940000D01*
X163800000Y-29060000D02*
X163000000Y-29060000D01*
X163800000Y-29060000D02*
X165600000Y-29060000D01*
X163800000Y-25940000D02*
X164600000Y-25940000D01*
%TO.C,R10*%
X170050000Y-59663641D02*
X170050000Y-59356359D01*
X169290000Y-59663641D02*
X169290000Y-59356359D01*
%TO.C,D1*%
X174285000Y-36395000D02*
X172015000Y-36395000D01*
X174285000Y-40280000D02*
X174285000Y-36395000D01*
X172015000Y-36395000D02*
X172015000Y-40280000D01*
%TO.C,J1*%
X166800000Y-22000000D02*
X166800000Y-20100000D01*
X176200000Y-25900000D02*
X176200000Y-23900000D01*
X176200000Y-20100000D02*
X166800000Y-20100000D01*
X166800000Y-25900000D02*
X166800000Y-23900000D01*
X176200000Y-22000000D02*
X176200000Y-20100000D01*
%TO.C,C6*%
X165560000Y-24707836D02*
X165560000Y-24492164D01*
X164840000Y-24707836D02*
X164840000Y-24492164D01*
%TO.C,R1*%
X162146359Y-21620000D02*
X162453641Y-21620000D01*
X162146359Y-22380000D02*
X162453641Y-22380000D01*
%TO.C,C8*%
X172990000Y-42657836D02*
X172990000Y-42442164D01*
X172270000Y-42657836D02*
X172270000Y-42442164D01*
%TO.C,C18*%
X166930000Y-59607836D02*
X166930000Y-59392164D01*
X167650000Y-59607836D02*
X167650000Y-59392164D01*
%TO.C,J2*%
X181250000Y-29770000D02*
X182580000Y-29770000D01*
X182580000Y-29770000D02*
X182580000Y-31100000D01*
X179920000Y-70530000D02*
X182580000Y-70530000D01*
X179920000Y-32370000D02*
X182580000Y-32370000D01*
X179920000Y-32370000D02*
X179920000Y-70530000D01*
X182580000Y-32370000D02*
X182580000Y-70530000D01*
%TO.C,R5*%
X174480000Y-30553641D02*
X174480000Y-30246359D01*
X173720000Y-30553641D02*
X173720000Y-30246359D01*
%TO.C,C5*%
X178060000Y-35107836D02*
X178060000Y-34892164D01*
X177340000Y-35107836D02*
X177340000Y-34892164D01*
%TO.C,C4*%
X178060000Y-33007836D02*
X178060000Y-32792164D01*
X177340000Y-33007836D02*
X177340000Y-32792164D01*
%TO.C,Q1*%
X180360000Y-26500000D02*
X180360000Y-24825000D01*
X177240000Y-26500000D02*
X177240000Y-27150000D01*
X180360000Y-26500000D02*
X180360000Y-27150000D01*
X177240000Y-26500000D02*
X177240000Y-25850000D01*
%TO.C,C19*%
X171800000Y-60547836D02*
X171800000Y-60332164D01*
X172520000Y-60547836D02*
X172520000Y-60332164D01*
%TO.C,R3*%
X175776359Y-40560000D02*
X176083641Y-40560000D01*
X175776359Y-39800000D02*
X176083641Y-39800000D01*
%TO.C,C13*%
X170910000Y-47247836D02*
X170910000Y-47032164D01*
X171630000Y-47247836D02*
X171630000Y-47032164D01*
%TO.C,C11*%
X173750000Y-60577836D02*
X173750000Y-60362164D01*
X173030000Y-60577836D02*
X173030000Y-60362164D01*
%TO.C,C1*%
X161160000Y-24392164D02*
X161160000Y-24607836D01*
X160440000Y-24392164D02*
X160440000Y-24607836D01*
%TO.C,R6*%
X161380000Y-28253641D02*
X161380000Y-27946359D01*
X160620000Y-28253641D02*
X160620000Y-27946359D01*
%TO.C,C15*%
X165012164Y-52050000D02*
X165227836Y-52050000D01*
X165012164Y-51330000D02*
X165227836Y-51330000D01*
%TO.C,R7*%
X178146359Y-23120000D02*
X178453641Y-23120000D01*
X178146359Y-23880000D02*
X178453641Y-23880000D01*
%TO.C,C12*%
X168850000Y-59607836D02*
X168850000Y-59392164D01*
X168130000Y-59607836D02*
X168130000Y-59392164D01*
%TO.C,R8*%
X172270000Y-44586359D02*
X172270000Y-44893641D01*
X173030000Y-44586359D02*
X173030000Y-44893641D01*
%TO.C,C9*%
X165550000Y-66452164D02*
X165550000Y-66667836D01*
X166270000Y-66452164D02*
X166270000Y-66667836D01*
%TO.C,U2*%
X176860000Y-33700000D02*
X176860000Y-31900000D01*
X173740000Y-33700000D02*
X173740000Y-32900000D01*
X176860000Y-33700000D02*
X176860000Y-34500000D01*
X173740000Y-33700000D02*
X173740000Y-34500000D01*
%TO.C,C16*%
X176967836Y-52110000D02*
X176752164Y-52110000D01*
X176967836Y-52830000D02*
X176752164Y-52830000D01*
%TO.C,U1*%
X169940000Y-31500000D02*
X169940000Y-30700000D01*
X169940000Y-31500000D02*
X169940000Y-32300000D01*
X173060000Y-31500000D02*
X173060000Y-32300000D01*
X173060000Y-31500000D02*
X173060000Y-29700000D01*
%TO.C,C14*%
X175920000Y-57327836D02*
X175920000Y-57112164D01*
X176640000Y-57327836D02*
X176640000Y-57112164D01*
%TO.C,R4*%
X181453641Y-24080000D02*
X181146359Y-24080000D01*
X181453641Y-23320000D02*
X181146359Y-23320000D01*
%TO.C,SW1*%
X170920000Y-39360000D02*
X170920000Y-43500000D01*
X168080000Y-43500000D02*
X167780000Y-43500000D01*
X170620000Y-39360000D02*
X170920000Y-39360000D01*
X170920000Y-43500000D02*
X170620000Y-43500000D01*
X167780000Y-39360000D02*
X168080000Y-39360000D01*
X167780000Y-43500000D02*
X167780000Y-39360000D01*
%TO.C,R2*%
X162146359Y-20520000D02*
X162453641Y-20520000D01*
X162146359Y-21280000D02*
X162453641Y-21280000D01*
%TO.C,R12*%
X165330000Y-45376359D02*
X165330000Y-45683641D01*
X166090000Y-45376359D02*
X166090000Y-45683641D01*
%TO.C,SW2*%
X164410000Y-43440000D02*
X164110000Y-43440000D01*
X166950000Y-39300000D02*
X167250000Y-39300000D01*
X164110000Y-43440000D02*
X164110000Y-39300000D01*
X164110000Y-39300000D02*
X164410000Y-39300000D01*
X167250000Y-39300000D02*
X167250000Y-43440000D01*
X167250000Y-43440000D02*
X166950000Y-43440000D01*
%TO.C,C3*%
X176340000Y-30507836D02*
X176340000Y-30292164D01*
X177060000Y-30507836D02*
X177060000Y-30292164D01*
%TO.C,C17*%
X165962164Y-57090000D02*
X166177836Y-57090000D01*
X165962164Y-57810000D02*
X166177836Y-57810000D01*
%TO.C,U5*%
X171480000Y-62285000D02*
X168755000Y-62285000D01*
X168755000Y-67735000D02*
X168755000Y-67475000D01*
X174205000Y-67475000D02*
X175880000Y-67475000D01*
X171480000Y-62285000D02*
X174205000Y-62285000D01*
X171480000Y-67735000D02*
X168755000Y-67735000D01*
X171480000Y-67735000D02*
X174205000Y-67735000D01*
X168755000Y-62285000D02*
X168755000Y-62545000D01*
X174205000Y-62285000D02*
X174205000Y-62545000D01*
X174205000Y-67735000D02*
X174205000Y-67475000D01*
%TO.C,Y1*%
X173480000Y-45630000D02*
X176780000Y-45630000D01*
X176780000Y-45630000D02*
X176780000Y-41630000D01*
%TO.C,C7*%
X173257836Y-46080000D02*
X173042164Y-46080000D01*
X173257836Y-46800000D02*
X173042164Y-46800000D01*
%TO.C,C2*%
X175760000Y-30507836D02*
X175760000Y-30292164D01*
X175040000Y-30507836D02*
X175040000Y-30292164D01*
%TO.C,C10*%
X170260000Y-47547836D02*
X170260000Y-47332164D01*
X169540000Y-47547836D02*
X169540000Y-47332164D01*
%TO.C,J6*%
X163130000Y-39920000D02*
X163130000Y-41250000D01*
X160470000Y-42520000D02*
X160470000Y-70520000D01*
X160470000Y-42520000D02*
X163130000Y-42520000D01*
X161800000Y-39920000D02*
X163130000Y-39920000D01*
X163130000Y-42520000D02*
X163130000Y-70520000D01*
X160470000Y-70520000D02*
X163130000Y-70520000D01*
%TO.C,C20*%
X165952164Y-56440000D02*
X166167836Y-56440000D01*
X165952164Y-55720000D02*
X166167836Y-55720000D01*
%TO.C,U4*%
X174460000Y-49890000D02*
X175110000Y-49890000D01*
X167890000Y-49890000D02*
X167890000Y-50540000D01*
X175110000Y-49890000D02*
X175110000Y-50540000D01*
X168540000Y-49890000D02*
X167890000Y-49890000D01*
X167890000Y-57110000D02*
X167890000Y-56460000D01*
X168540000Y-57110000D02*
X167890000Y-57110000D01*
X174460000Y-57110000D02*
X175110000Y-57110000D01*
%TO.C,R9*%
X170570000Y-59663641D02*
X170570000Y-59356359D01*
X171330000Y-59663641D02*
X171330000Y-59356359D01*
%TO.C,J3*%
X161942500Y-36340000D02*
X166942500Y-36340000D01*
X166942500Y-36340000D02*
X166942500Y-37560000D01*
X169142500Y-36340000D02*
X169142500Y-37560000D01*
X160722500Y-29840000D02*
X169142500Y-29840000D01*
X165942500Y-32130000D02*
X165942500Y-32450000D01*
X166942500Y-31060000D02*
X166942500Y-29840000D01*
X166942500Y-33780000D02*
X166942500Y-33620000D01*
X160722500Y-37560000D02*
X160722500Y-29840000D01*
X169142500Y-37560000D02*
X160722500Y-37560000D01*
X165942500Y-32770000D02*
X162522500Y-32770000D01*
X162522500Y-32770000D02*
X162442500Y-32450000D01*
X161942500Y-29840000D02*
X161942500Y-31060000D01*
X165942500Y-34950000D02*
X165942500Y-35270000D01*
X161942500Y-37560000D02*
X161942500Y-36340000D01*
X161942500Y-31060000D02*
X166942500Y-31060000D01*
X169142500Y-29840000D02*
X169142500Y-31060000D01*
X169032500Y-34950000D02*
X169632500Y-35250000D01*
X165942500Y-34630000D02*
X165942500Y-34950000D01*
X169142500Y-31060000D02*
X166942500Y-31060000D01*
X162522500Y-34630000D02*
X165942500Y-34630000D01*
X165942500Y-32450000D02*
X165942500Y-32770000D01*
X162442500Y-32450000D02*
X162522500Y-32130000D01*
X166942500Y-36340000D02*
X169142500Y-36340000D01*
X169632500Y-35250000D02*
X169632500Y-34650000D01*
X162442500Y-34950000D02*
X162522500Y-34630000D01*
X162522500Y-35270000D02*
X162442500Y-34950000D01*
X169632500Y-34650000D02*
X169032500Y-34950000D01*
X165942500Y-35270000D02*
X162522500Y-35270000D01*
X165942500Y-36340000D02*
X165942500Y-31060000D01*
X162522500Y-32130000D02*
X165942500Y-32130000D01*
%TO.C,F1*%
X163210000Y-23937221D02*
X163210000Y-24262779D01*
X162190000Y-23937221D02*
X162190000Y-24262779D01*
%TO.C,R11*%
X169940000Y-45216359D02*
X169940000Y-45523641D01*
X169180000Y-45216359D02*
X169180000Y-45523641D01*
%TO.C,D2*%
X182550000Y-28000000D02*
X182550000Y-25450000D01*
X180850000Y-28000000D02*
X180850000Y-25450000D01*
X180850000Y-28000000D02*
X182550000Y-28000000D01*
%TD*%
M02*
